<svg width="11" height="11" viewBox="0 0 11 11" fill="none" xmlns="http://www.w3.org/2000/svg">
<path d="M1.94421 0.27909L0.479826 1.74191C0.108574 2.11449 -0.0646772 2.64654 0.0219479 3.16348C0.32445 4.98513 1.29245 6.79165 2.74996 8.25172C4.20884 9.70904 6.0156 10.6783 7.83611 10.978C7.92411 10.9931 8.01074 11 8.10011 11C8.53186 11 8.95262 10.8254 9.25787 10.5202L10.7209 9.05737C10.901 8.87726 11 8.63942 11 8.38508C11 8.13211 10.8996 7.89151 10.7209 7.71279L9.14237 6.13861C9.05472 6.04979 8.95022 5.97935 8.835 5.93143C8.71978 5.8835 8.59615 5.85906 8.47136 5.85952C8.21836 5.85952 7.97911 5.95988 7.80036 6.13861L6.56835 7.37183C5.91385 7.08861 5.32397 6.68854 4.81935 6.18123C4.31526 5.679 3.912 5.08492 3.63134 4.43107L4.86335 3.19785C5.04347 3.01775 5.14247 2.7799 5.14247 2.52556C5.14247 2.27259 5.0421 2.032 4.86335 1.85327L3.28621 0.27909C3.10746 0.0989877 2.86821 0 2.61521 0C2.36221 0 2.12296 0.100363 1.94421 0.27909Z" fill="#0093C8"/>
</svg>
