<svg width="64px" height="64px" viewBox="0 0 36 23" fill="none" xmlns="http://www.w3.org/2000/svg">
<path d="M34.9358 11.425C34.5618 10.9077 34.069 10.4906 33.5 10.21C32.931 9.92936 32.303 9.79368 31.6705 9.81471C31.0304 9.81404 30.3978 9.95454 29.8166 10.2265C29.8166 10.1566 29.8166 10.0904 29.8166 10.0243V9.94706C29.8163 9.88047 29.8102 9.81404 29.7985 9.74853C29.662 7.89505 29.0296 6.1143 27.9692 4.59779C26.9088 3.08128 25.4605 1.88637 23.7801 1.14155C22.0996 0.396735 20.2506 0.13019 18.4319 0.370579C16.6131 0.610969 14.8934 1.3492 13.4578 2.50588C12.8203 2.23666 12.1358 2.10045 11.4452 2.10539C10.7545 2.11034 10.072 2.25634 9.43835 2.53468C8.80469 2.81301 8.23291 3.21795 7.75721 3.72531C7.2815 4.23266 6.91162 4.832 6.66969 5.4875C4.85812 5.88925 3.25333 6.94676 2.15616 8.46178C1.059 9.9768 0.544779 11.8453 0.709904 13.717C0.875029 15.5888 1.70816 17.3352 3.05312 18.629C4.39808 19.9228 6.16252 20.6751 8.01569 20.7449H19.9556H19.9338C21.8764 20.7087 23.7668 20.102 25.3759 18.9985H25.3468C24.984 18.9985 24.8498 18.925 24.8498 18.5132V12.8C24.8498 10.9618 24.8498 9.18971 24.8498 7.21176C24.8498 6.91029 24.9115 6.80368 25.238 6.80368C25.8076 6.80368 26.3083 6.70074 26.8126 7.05C26.9641 7.1352 27.0911 7.25908 27.1808 7.40934C27.2706 7.55961 27.32 7.73103 27.3241 7.90662C27.3241 11.0169 27.3241 14.1199 27.3241 17.2375C27.3241 18.8772 27.3241 20.5169 27.3241 22.2963V22.3919C27.3241 22.5941 27.4039 22.6971 27.52 22.7596C27.5816 22.7757 27.6451 22.7831 27.7087 22.7816C27.9082 22.7816 28.1005 22.7816 28.2892 22.8H28.3726C28.7024 22.8124 29.026 22.707 29.2869 22.5022C29.4444 22.3896 29.5731 22.2403 29.6621 22.067C29.7511 21.8937 29.7978 21.7013 29.7985 21.5059V18.6382C30.3916 18.8877 31.0284 19.0128 31.6705 19.0059C32.9657 19.0059 34.1702 18.5574 34.9358 17.4912C35.4991 16.5665 35.7876 15.4968 35.7666 14.4103C35.7854 13.3541 35.4964 12.3157 34.9358 11.425ZM13.7734 15.186C13.6302 16.1066 13.2109 16.9601 12.5725 17.6309C11.8439 18.3305 10.9131 18.7751 9.91679 18.8993C9.53574 18.9667 9.14987 19.0024 8.76307 19.0059C7.40981 19.0059 6.22344 18.7522 5.21485 17.9507C4.79989 17.6345 4.45195 17.2369 4.19174 16.7816C3.71109 15.9064 3.41925 14.9377 3.33552 13.9397C3.27424 13.1792 3.28761 12.4144 3.37543 11.6566C3.56771 9.78529 4.31872 8.25956 6.07469 7.39559C7.0071 6.95366 8.03268 6.75162 9.06057 6.80735C10.363 6.85882 11.6256 7.14927 12.6052 8.1125C12.962 8.43868 13.2497 8.83506 13.4505 9.2775C13.6513 9.71994 13.7612 10.1992 13.7734 10.686C13.7734 10.9912 13.4977 10.9838 13.4106 10.9838H11.8469C11.3753 10.9838 11.3789 10.7081 11.3208 10.3882C11.1213 9.36985 10.0329 9.05 9.04243 9.03897C8.11365 9.03897 7.28646 9.19338 6.62253 9.92868C6.19292 10.4277 5.91452 11.0417 5.82073 11.6971C5.65381 12.5342 5.65381 13.3967 5.82073 14.2338C6.13637 15.7044 6.94542 16.7375 8.55627 16.8074C8.96005 16.8605 9.37048 16.8185 9.75561 16.6846C10.1407 16.5507 10.4902 16.3285 10.7766 16.0353C11.0354 15.7779 11.2199 15.4537 11.31 15.0978C11.3716 14.8147 11.5095 14.7301 11.807 14.7301H13.4142C13.8278 14.7449 13.8278 14.925 13.7734 15.186ZM21.6426 15.7706C21.6261 16.4511 21.3917 17.1077 20.9749 17.6415C20.5581 18.1753 19.9813 18.5574 19.3316 18.7302C18.2858 19.0513 17.1757 19.0918 16.1099 18.8478C14.9199 18.5537 14.1035 17.8919 14.1144 16.4324C14.0657 15.9241 14.12 15.4112 14.2741 14.925C14.6006 14.1456 15.2754 13.8221 15.9901 13.5684C16.654 13.3686 17.338 13.2453 18.0291 13.2007C18.3939 13.1287 18.7469 13.0049 19.0776 12.8331C19.18 12.7837 19.2649 12.7036 19.3207 12.6036C19.3765 12.5036 19.4006 12.3886 19.3896 12.2743C19.3827 12.1608 19.3452 12.0515 19.2812 11.9582C19.2173 11.8648 19.1293 11.791 19.0268 11.7449C18.622 11.5851 18.1839 11.532 17.7534 11.5904C17.3035 11.5904 16.8899 11.6529 16.6649 12.1125C16.625 12.1934 16.5488 12.1824 16.4835 12.1824H14.5462C14.3249 12.1824 14.2668 12.061 14.3212 11.8809C14.4683 11.342 14.7661 10.8577 15.1788 10.4865C15.5915 10.1153 16.1013 9.87305 16.6468 9.78897C17.6934 9.58076 18.7732 9.61849 19.8032 9.89927C20.2196 9.995 20.6041 10.1994 20.9185 10.4922C21.2329 10.785 21.4662 11.156 21.5955 11.5684C21.6271 11.6882 21.6406 11.8121 21.6354 11.936C21.6354 12.5794 21.6354 13.2228 21.6354 13.8625C21.6354 14.5022 21.668 15.1456 21.6426 15.7706ZM24.1024 19.0059H22.5025C22.1397 19.0059 22.0018 18.9324 22.0018 18.5206V12.8C22.0018 10.9618 22.0018 9.18971 22.0018 7.21176C22.0018 6.91029 22.0635 6.80368 22.39 6.80368C22.9596 6.80368 23.4784 6.70074 23.9646 7.05C24.1166 7.13463 24.2439 7.25837 24.3338 7.40876C24.4236 7.55915 24.4727 7.73087 24.4761 7.90662C24.4761 11.4618 24.4761 15.0059 24.4761 18.5684C24.4906 18.8956 24.4108 19.0059 24.0915 19.0059H24.1024ZM33.1254 16.2816C32.9909 16.5538 32.7834 16.782 32.5267 16.9401C32.27 17.0981 31.9745 17.1795 31.6742 17.175C31.3697 17.1812 31.0696 17.1008 30.8079 16.9428C30.5463 16.7849 30.3336 16.5559 30.1939 16.2816C29.9375 15.711 29.8134 15.0885 29.8311 14.4618C29.8088 13.8555 29.9268 13.2524 30.1758 12.7007C30.3146 12.4197 30.5265 12.1825 30.7886 12.0147C31.0508 11.8469 31.3532 11.7548 31.6633 11.7485C31.9684 11.7558 32.2655 11.8486 32.5217 12.0167C32.7779 12.1848 32.9831 12.4216 33.1145 12.7007C33.3677 13.2516 33.4918 13.8543 33.4773 14.4618C33.4933 15.0883 33.3692 15.7105 33.1145 16.2816H33.1254Z" fill="#0093C8"/>
</svg>
